#!OML:ASF F:\VICON\USERDATA\INSTALL\rory7\rory7.ASF
:FULLY-SPECIFIED
:DEGREES
1798
root -5.58418 18.2087 2.24797 -57.7553 -88.7876 54.951
lowerback 12.3355 2.67162 1.05925
upperback 1.31845 3.57021 -0.996663
thorax -5.39263 1.69794 -2.23412
lowerneck -5.73364 0.460809 -3.93088
upperneck -23.3986 -0.000836037 1.96231
head -6.18142 -0.19093 1.3415
rclavicle 3.00351e-014 -6.60959e-015
rhumerus 44.2062 -30.541 -33.0598
rradius 75.4615
rwrist 1.18158
rhand -44.0228 5.15618
rfingers 7.12502
rthumb -16.8432 -24.1333
lclavicle 3.00351e-014 -6.60959e-015
lhumerus -19.3448 -8.22231 53.9227
lradius 99.3403
lwrist 14.7894
lhand -30.4441 21.3458
lfingers 7.12502
lthumb -3.74634 51.2926
rfemur 0.91584 16.6379 18.521
rtibia 28.835
rfoot -26.7437 -13.8247
rtoes -1.80607
lfemur -7.21827 -4.82525 -14.6431
ltibia 38.6408
lfoot -17.8782 8.51329
ltoes -17.7709
1799
root -5.59492 18.1926 2.29966 -59.4644 -88.5832 56.5194
lowerback 12.2624 2.61663 0.845553
upperback 1.25857 3.47313 -0.951785
thorax -5.435 1.65531 -2.04975
lowerneck -5.67853 0.489287 -3.98148
upperneck -23.2559 0.0246804 1.84865
head -6.14595 -0.164195 1.31103
rclavicle 2.68639e-014 -2.08724e-015
rhumerus 44.7279 -30.9244 -33.3168
rradius 75.1819
rwrist 0.87812
rhand -43.7254 4.97109
rfingers 7.12502
rthumb -16.5568 -24.3426
lclavicle 2.68639e-014 -2.08724e-015
lhumerus -16.8057 -8.38018 52.5628
lradius 100.311
lwrist 15.1541
lhand -30.2212 21.1419
lfingers 7.12502
lthumb -3.53108 51.0924
rfemur 1.0371 16.6953 18.2181
rtibia 29.0809
rfoot -26.84 -14.1028
rtoes -3.14764
lfemur -6.21457 -5.27159 -15.1645
ltibia 37.3233
lfoot -18.5127 9.12666
ltoes -18.9765
1800
root -5.60542 18.1837 2.34942 -58.7856 -88.4544 55.7428
lowerback 12.16 2.58078 0.751418
upperback 1.20962 3.41563 -0.938095
thorax -5.43831 1.62994 -1.96953
lowerneck -5.64251 0.458945 -4.02197
upperneck -23.2068 -0.0106233 1.87278
head -6.13488 -0.178457 1.32634
rclavicle -6.62201e-015 -4.79568e-015
rhumerus 45.1099 -31.4259 -33.5055
rradius 75.0034
rwrist 0.548907
rhand -43.6541 4.91264
rfingers 7.12502
rthumb -16.4882 -24.4067
lclavicle -6.62201e-015 -4.79568e-015
lhumerus -14.0192 -8.58434 51.0652
lradius 101.127
lwrist 15.583
lhand -30.3734 21.1291
lfingers 7.12502
lthumb -3.6781 51.0771
rfemur 1.10666 16.826 18.0397
rtibia 29.3312
rfoot -26.9278 -14.4668
rtoes -4.222
lfemur -5.34813 -5.65459 -15.5379
ltibia 36.1527
lfoot -19.3564 9.16662
ltoes -17.0025
1801
root -5.61743 18.1805 2.40123 -55.7213 -88.3459 52.7023
lowerback 11.9089 2.48892 0.719441
upperback 1.13449 3.29351 -0.927752
thorax -5.38471 1.5729 -1.91048
lowerneck -5.6262 0.488912 -4.15121
upperneck -23.0934 0.0717906 2.06367
head -6.1028 -0.138177 1.4055
rclavicle 5.88589e-016 -1.41634e-015
rhumerus 45.6083 -31.8448 -33.8175
rradius 74.8727
rwrist 0.0663756
rhand -43.6372 5.08202
rfingers 7.12502
rthumb -16.4719 -24.2387
lclavicle 5.88589e-016 -1.41634e-015
lhumerus -11.337 -8.59952 49.5895
lradius 101.833
lwrist 15.8391
lhand -30.6628 21.0943
lfingers 7.12502
lthumb -3.95754 51.0373
rfemur 1.03727 16.892 17.8903
rtibia 29.5849
rfoot -27.2894 -14.5603
rtoes -3.49046
lfemur -4.73175 -5.7529 -15.8208
ltibia 35.1282
lfoot -20.0968 9.15584
ltoes -15.1117
1802
root -5.62981 18.169 2.45514 -53.3551 -88.2136 50.3685
lowerback 11.5988 2.39814 0.60885
upperback 1.07336 3.16295 -0.90917
thorax -5.28808 1.51403 -1.79467
lowerneck -5.6077 0.554996 -4.1848
upperneck -22.9446 0.18917 2.16147
head -6.06108 -0.0820274 1.43683
rclavicle 6.20612e-014 -1.04113e-014
rhumerus 46.1864 -32.2431 -34.1736
rradius 74.6917
rwrist -0.482575
rhand -43.6302 4.75846
rfingers 7.12502
rthumb -16.4652 -24.5628
lclavicle 6.20612e-014 -1.04113e-014
lhumerus -8.74469 -8.38948 48.3564
lradius 102.392
lwrist 15.7493
lhand -30.5424 20.4665
lfingers 7.12502
lthumb -3.8412 50.4116
rfemur 0.933974 16.8622 17.6717
rtibia 29.8525
rfoot -27.7399 -14.4249
rtoes -2.22894
lfemur -4.22772 -5.38577 -16.123
ltibia 34.2208
lfoot -20.4928 9.49984
ltoes -16.012
1803
root -5.64199 18.1535 2.50955 -51.7307 -88.0454 48.7034
lowerback 11.3092 2.31615 0.420128
upperback 1.08331 3.03543 -0.847808
thorax -5.13381 1.45867 -1.59058
lowerneck -5.56745 0.571365 -4.22872
upperneck -22.9422 0.214797 2.19089
head -6.06784 -0.0682114 1.45293
rclavicle 1.54019e-015 1.95679e-016
rhumerus 46.8274 -32.6696 -34.433
rradius 74.4867
rwrist -1.02821
rhand -43.5757 4.14483
rfingers 7.12502
rthumb -16.4127 -25.1808
lclavicle 1.54019e-015 1.95679e-016
lhumerus -6.01977 -7.97753 47.1905
lradius 102.742
lwrist 15.6136
lhand -30.2926 19.8494
lfingers 7.12502
lthumb -3.60001 49.7987
rfemur 0.90571 16.9147 17.4442
rtibia 30.175
rfoot -28.1196 -14.3692
rtoes -1.60324
lfemur -3.69011 -4.91419 -16.4411
ltibia 33.3849
lfoot -20.9176 9.64074
ltoes -16.0199
1804
root -5.65234 18.1407 2.56615 -50.2163 -87.7918 47.1728
lowerback 11.0602 2.21031 0.230378
upperback 1.082 2.8757 -0.809253
thorax -5.01233 1.38635 -1.40828
lowerneck -5.71443 0.622577 -4.17993
upperneck -22.7445 0.281534 2.10947
head -5.98239 -0.0333635 1.41402
rclavicle 6.23376e-015 1.26725e-015
rhumerus 47.5306 -33.0992 -34.712
rradius 74.2389
rwrist -1.59975
rhand -43.4749 3.70741
rfingers 7.12502
rthumb -16.3157 -25.6262
lclavicle 6.23376e-015 1.26725e-015
lhumerus -3.1542 -7.49599 45.6787
lradius 102.941
lwrist 15.7621
lhand -30.2858 19.8893
lfingers 7.12502
lthumb -3.59343 49.8388
rfemur 0.825284 16.8887 17.1249
rtibia 30.5627
rfoot -28.242 -14.5329
rtoes -1.966
lfemur -3.21502 -4.58307 -16.8149
ltibia 32.5952
lfoot -21.4614 9.54455
ltoes -14.3405
1805
root -5.66036 18.1309 2.62053 -48.8306 -87.5319 45.7822
lowerback 10.9594 2.14475 0.223092
upperback 0.991007 2.78551 -0.896671
thorax -5.04962 1.34172 -1.48009
lowerneck -5.93069 0.55098 -4.3445
upperneck -22.322 0.247654 2.31344
head -5.80997 -0.0436167 1.50328
rclavicle -3.02782e-014 8.84592e-015
rhumerus 48.0191 -33.6226 -34.9941
rradius 73.8675
rwrist -2.09067
rhand -43.4569 3.61993
rfingers 7.12502
rthumb -16.2984 -25.7151
lclavicle -3.02782e-014 8.84592e-015
lhumerus -0.0978008 -7.12097 43.8825
lradius 102.964
lwrist 16.1554
lhand -30.2955 19.9882
lfingers 7.12502
lthumb -3.60279 49.9375
rfemur 0.691953 16.8658 16.8149
rtibia 31.0038
rfoot -28.2187 -14.8711
rtoes -2.94183
lfemur -2.81757 -4.30152 -17.1895
ltibia 31.8724
lfoot -21.8447 9.62195
ltoes -13.142
1806
root -5.66749 18.1256 2.67128 -46.0953 -87.3473 42.9941
lowerback 10.9468 2.08504 0.247344
upperback 0.898287 2.71002 -0.91808
thorax -5.13952 1.30365 -1.50695
lowerneck -5.96757 0.418326 -4.61207
upperneck -22.0903 0.119015 2.53041
head -5.72531 -0.0944697 1.61893
rclavicle -1.70559e-014 3.11843e-015
rhumerus 48.5354 -34.1198 -35.2272
rradius 73.4491
rwrist -2.54619
rhand -43.4997 3.42837
rfingers 7.12502
rthumb -16.3396 -25.9033
lclavicle -1.70559e-014 3.11843e-015
lhumerus 2.94653 -6.59241 42.2772
lradius 102.806
lwrist 16.5051
lhand -30.5787 19.8807
lfingers 7.12502
lthumb -3.87633 49.8252
rfemur 0.584338 16.9068 16.6991
rtibia 31.4959
rfoot -28.1378 -15.396
rtoes -4.49879
lfemur -2.43439 -4.22143 -17.4494
ltibia 31.2627
lfoot -21.9591 10.0372
ltoes -13.2261
1807
root -5.67254 18.1169 2.72605 -44.0911 -87.116 40.9135
lowerback 10.9466 1.94575 -0.0901496
upperback 0.848538 2.49509 -0.74256
thorax -5.2195 1.20702 -1.10339
lowerneck -5.92701 0.554796 -4.3167
upperneck -22.0243 0.219486 2.0364
head -5.71577 -0.0386269 1.40767
rclavicle 5.04727e-015 -1.2921e-014
rhumerus 49.5543 -34.3772 -35.6173
rradius 72.9947
rwrist -2.97334
rhand -43.5198 2.76833
rfingers 7.12502
rthumb -16.3589 -26.5618
lclavicle 5.04727e-015 -1.2921e-014
lhumerus 5.64588 -5.72776 40.8884
lradius 102.497
lwrist 16.5916
lhand -31.0158 19.8173
lfingers 7.12502
lthumb -4.29835 49.7537
rfemur 0.438659 16.7722 16.507
rtibia 32.0507
rfoot -28.046 -15.8359
rtoes -5.90547
lfemur -2.06433 -4.27718 -17.7361
ltibia 30.8018
lfoot -21.9688 10.2974
ltoes -14.2153
1808
root -5.6766 18.1086 2.78462 -43.5655 -86.8112 40.3367
lowerback 10.9741 1.78845 -0.52352
upperback 0.781533 2.24247 -0.593273
thorax -5.3321 1.0942 -0.668415
lowerneck -5.76351 0.719817 -3.95233
upperneck -22.1126 0.350529 1.555
head -5.77458 0.0246035 1.1895
rclavicle 9.48576e-015 1.2921e-015
rhumerus 50.7752 -34.6009 -36.2738
rradius 72.4588
rwrist -3.33879
rhand -43.4364 2.58756
rfingers 7.12502
rthumb -16.2786 -26.7491
lclavicle 9.48576e-015 1.2921e-015
lhumerus 8.25769 -4.79933 39.4818
lradius 102.056
lwrist 16.8948
lhand -31.0981 20.4306
lfingers 7.12502
lthumb -4.37785 50.3653
rfemur 0.191493 16.593 16.1532
rtibia 32.707
rfoot -28.0162 -16.075
rtoes -6.53658
lfemur -1.78556 -4.33797 -18.084
ltibia 30.4774
lfoot -22.0599 9.86519
ltoes -14.6203
